<svg width="3956" height="1142" viewBox="0 0 3956 1142" fill="none" xmlns="http://www.w3.org/2000/svg">
<path d="M3927.24 450.962C3930.65 447.085 3927.9 441 3922.74 441H3756.77C3755.01 441 3753.34 441.773 3752.2 443.114L3603.93 617.552C3602.2 619.593 3602.02 622.537 3603.51 624.766L3776.22 883.828C3777.33 885.497 3779.2 886.5 3781.21 886.5H3944.15C3948.97 886.5 3951.82 881.105 3949.11 877.122L3778.62 626.845C3777.08 624.582 3777.26 621.562 3779.07 619.506L3927.24 450.962Z" fill="#1AD632"/>
<path d="M412.16 882.4C399.28 886.08 387.32 888.84 376.28 890.68C365.24 893.133 354.2 894.973 343.16 896.2C332.733 898.04 321.693 899.267 310.04 899.88C299 900.493 286.427 900.8 272.32 900.8C216.507 900.8 173.573 884.547 143.52 852.04C114.08 819.533 99.36 772.613 99.36 711.28V574.2H13.8V440.8H99.36V289H248.4V440.8H385.48V574.2H248.4V696.56C248.4 718.64 253 736.12 262.2 749C272.013 761.267 288.573 767.4 311.88 767.4C322.92 767.4 334.88 767.093 347.76 766.48C361.253 765.253 378.12 763.107 398.36 760.04L412.16 882.4ZM699.121 423.32C736.534 423.32 770.574 429.147 801.241 440.8C832.521 451.84 859.201 467.787 881.281 488.64C903.974 509.493 921.454 534.64 933.721 564.08C945.988 593.52 952.121 626.027 952.121 661.6C952.121 697.787 945.988 730.6 933.721 760.04C921.454 789.48 903.974 814.933 881.281 836.4C859.201 857.253 832.521 873.507 801.241 885.16C770.574 896.813 736.534 902.64 699.121 902.64C661.708 902.64 627.361 896.813 596.081 885.16C565.414 873.507 538.734 857.253 516.041 836.4C493.961 814.933 476.788 789.48 464.521 760.04C452.254 730.6 446.121 697.787 446.121 661.6C446.121 626.027 452.254 593.52 464.521 564.08C476.788 534.64 493.961 509.493 516.041 488.64C538.734 467.787 565.414 451.84 596.081 440.8C627.361 429.147 661.708 423.32 699.121 423.32ZM699.121 774.76C731.628 774.76 758.001 764.64 778.241 744.4C799.094 723.547 809.521 695.947 809.521 661.6C809.521 628.48 799.094 601.8 778.241 581.56C758.001 561.32 731.628 551.2 699.121 551.2C666.614 551.2 639.934 561.32 619.081 581.56C598.841 601.8 588.721 628.48 588.721 661.6C588.721 695.947 598.841 723.547 619.081 744.4C639.934 764.64 666.614 774.76 699.121 774.76ZM1291.9 427C1326.86 427 1357.84 432.827 1384.82 444.48C1411.81 455.52 1434.81 471.467 1453.82 492.32C1472.84 512.56 1487.56 537.093 1497.98 565.92C1508.41 594.747 1514.24 626.64 1515.46 661.6C1515.46 699.013 1509.33 732.133 1497.06 760.96C1485.41 789.787 1469.46 814.32 1449.22 834.56C1429.6 854.187 1406.6 869.213 1380.22 879.64C1353.85 889.453 1326.56 894.36 1298.34 894.36C1277.49 894.36 1257.86 894.053 1239.46 893.44C1221.06 893.44 1199.6 892.213 1175.06 889.76V1094H1026.02V449.08C1078.16 442.333 1124.77 437.12 1165.86 433.44C1207.57 429.147 1249.58 427 1291.9 427ZM1271.66 772C1286.38 772 1299.88 769.24 1312.14 763.72C1324.41 758.2 1334.84 750.84 1343.42 741.64C1352.62 731.827 1359.68 720.48 1364.58 707.6C1369.49 694.107 1371.94 679.693 1371.94 664.36C1371.94 630.013 1363.36 602.107 1346.18 580.64C1329.62 558.56 1302.94 547.52 1266.14 547.52C1249.58 547.52 1234.25 548.133 1220.14 549.36C1206.04 549.973 1191.01 550.893 1175.06 552.12V765.56C1198.37 768.627 1217.08 770.467 1231.18 771.08C1245.9 771.693 1259.4 772 1271.66 772ZM1975.06 887L1893.18 647.8L1812.22 887H1669.62L1529.78 440.8H1680.66L1750.58 692.88L1837.98 440.8H1949.3L2035.78 693.8L2106.62 440.8H2256.58L2117.66 887H1975.06ZM2519.61 423.32C2557.02 423.32 2591.06 429.147 2621.73 440.8C2653.01 451.84 2679.69 467.787 2701.77 488.64C2724.46 509.493 2741.94 534.64 2754.21 564.08C2766.47 593.52 2772.61 626.027 2772.61 661.6C2772.61 697.787 2766.47 730.6 2754.21 760.04C2741.94 789.48 2724.46 814.933 2701.77 836.4C2679.69 857.253 2653.01 873.507 2621.73 885.16C2591.06 896.813 2557.02 902.64 2519.61 902.64C2482.19 902.64 2447.85 896.813 2416.57 885.16C2385.9 873.507 2359.22 857.253 2336.53 836.4C2314.45 814.933 2297.27 789.48 2285.01 760.04C2272.74 730.6 2266.61 697.787 2266.61 661.6C2266.61 626.027 2272.74 593.52 2285.01 564.08C2297.27 534.64 2314.45 509.493 2336.53 488.64C2359.22 467.787 2385.9 451.84 2416.57 440.8C2447.85 429.147 2482.19 423.32 2519.61 423.32ZM2519.61 774.76C2552.11 774.76 2578.49 764.64 2598.73 744.4C2619.58 723.547 2630.01 695.947 2630.01 661.6C2630.01 628.48 2619.58 601.8 2598.73 581.56C2578.49 561.32 2552.11 551.2 2519.61 551.2C2487.1 551.2 2460.42 561.32 2439.57 581.56C2419.33 601.8 2409.21 628.48 2409.21 661.6C2409.21 695.947 2419.33 723.547 2439.57 744.4C2460.42 764.64 2487.1 774.76 2519.61 774.76ZM3148.27 573.28C3096.75 573.28 3045.84 575.12 2995.55 578.8V887H2846.51V457.36C2896.19 448.773 2947.71 442.027 3001.07 437.12C3054.43 431.6 3103.5 428.84 3148.27 428.84V573.28ZM3385.73 593.52L3517.29 440.8H3691.17L3531.09 627.56L3704.97 887H3533.85L3428.97 731.52H3365.49V887H3216.45V233.8H3365.49V593.52H3385.73Z" fill="white"/>
</svg>
