<svg width="609" height="446" viewBox="0 0 609 446" fill="none" xmlns="http://www.w3.org/2000/svg">
<path d="M580.243 9.96153C583.651 6.085 580.898 0 575.736 0H409.775C408.014 0 406.343 0.772932 405.203 2.11411L256.931 176.552C255.196 178.593 255.024 181.537 256.51 183.766L429.219 442.828C430.332 444.497 432.205 445.5 434.211 445.5H597.153C601.972 445.5 604.825 440.105 602.112 436.122L431.619 185.845C430.078 183.582 430.264 180.562 432.072 178.506L580.243 9.96153Z" fill="#1AD632"/>
<path d="M326.243 9.96153C329.651 6.085 326.898 0 321.736 0H155.775C154.014 0 152.343 0.772932 151.203 2.11411L2.93113 176.552C1.19616 178.593 1.02449 181.537 2.51047 183.766L175.219 442.828C176.332 444.497 178.205 445.5 180.211 445.5H343.153C347.972 445.5 350.825 440.105 348.112 436.122L177.619 185.845C176.078 183.582 176.264 180.562 178.072 178.506L326.243 9.96153Z" fill="white"/>
</svg>
